<?xml version="1.0" encoding="UTF-8" ?>
<!DOCTYPE svg PUBLIC "-//W3C//DTD SVG 1.1//EN" "http://www.w3.org/Graphics/SVG/1.1/DTD/svg11.dtd">
<svg width="1543pt" height="295pt" viewBox="0 0 1543 295" version="1.1" xmlns="http://www.w3.org/2000/svg">
<path fill="#080909" d=" M 0.00 0.00 L 1543.00 0.00 L 1543.00 295.00 L 0.00 295.00 L 0.00 0.00 Z" />
<path fill="#ffffff" d=" M 503.19 45.57 C 542.08 36.52 582.21 34.71 622.00 34.38 C 659.75 34.33 697.49 36.40 735.03 40.42 C 758.94 42.97 782.86 45.88 806.42 50.77 C 804.85 59.34 803.22 67.90 801.78 76.49 C 723.77 62.11 644.00 57.39 564.85 62.42 C 542.09 64.34 519.05 66.66 497.32 74.09 C 488.67 77.10 479.38 81.65 475.57 90.55 C 472.00 99.54 471.68 110.56 477.10 118.89 C 482.56 126.73 492.26 130.06 501.32 131.46 C 520.14 134.27 539.20 134.71 558.18 135.47 C 576.79 136.21 595.44 135.65 614.04 136.40 C 655.57 136.26 697.11 136.50 738.56 139.15 C 756.98 140.77 775.76 141.75 793.49 147.47 C 805.66 151.45 817.07 159.37 822.88 171.05 C 829.82 185.01 829.47 201.49 826.11 216.37 C 823.11 229.32 813.89 239.93 802.75 246.77 C 786.70 256.62 767.93 260.57 749.63 263.89 C 712.10 269.99 673.97 270.96 636.02 271.00 C 602.68 270.61 569.30 269.44 536.10 266.14 C 505.73 263.18 475.32 259.57 445.50 252.92 C 446.92 244.11 448.31 235.29 449.85 226.50 C 534.13 242.12 620.32 248.67 705.90 242.67 C 727.58 240.73 749.60 238.49 770.16 230.94 C 780.22 227.30 789.38 219.70 792.44 209.15 C 795.07 199.95 795.22 189.24 789.86 180.96 C 785.64 174.50 778.26 171.09 771.07 169.05 C 754.45 164.58 737.07 164.72 720.01 163.62 C 702.84 163.02 685.68 162.76 668.52 162.47 C 648.34 162.15 628.16 162.69 607.99 162.14 C 590.31 162.35 572.67 161.40 555.01 161.01 C 531.35 159.75 507.58 158.70 484.20 154.52 C 472.03 152.40 459.40 148.49 450.60 139.35 C 440.60 129.02 437.90 113.70 439.12 99.84 C 440.07 87.39 445.58 75.26 454.98 66.93 C 468.32 54.88 486.17 49.91 503.19 45.57 Z" />
<path fill="#ffffff" d=" M 46.86 39.00 C 127.26 38.99 207.66 39.01 288.06 38.99 C 313.68 39.44 340.07 41.38 363.70 52.15 C 383.00 60.99 397.98 79.13 402.01 100.09 C 405.51 118.06 404.68 137.34 397.46 154.32 C 390.95 169.56 377.87 181.41 362.60 187.55 C 336.78 197.99 308.47 198.48 281.04 199.01 C 214.07 198.99 147.11 199.00 80.14 199.00 C 80.15 221.46 80.14 243.92 80.15 266.38 C 69.05 266.38 57.95 266.38 46.85 266.38 C 46.86 190.59 46.85 114.79 46.86 39.00 Z" />
<path fill="#3d8fff" d=" M 851.37 39.09 C 870.28 39.01 889.21 38.81 908.10 39.18 C 916.21 43.45 923.89 48.57 931.82 53.21 C 970.75 76.64 1009.66 100.09 1048.60 123.51 C 1038.63 129.57 1028.60 135.52 1018.65 141.59 C 963.65 108.49 908.69 75.32 853.68 42.23 C 852.37 41.65 851.95 40.25 851.37 39.09 Z" />
<path fill="#ffffff" d=" M 1144.17 90.19 C 1172.54 73.22 1200.71 55.88 1229.21 39.12 C 1248.04 38.90 1266.90 38.95 1285.75 39.10 C 1285.55 40.36 1284.97 41.32 1284.00 41.99 C 1222.24 79.23 1160.40 116.34 1098.69 153.67 C 1159.14 190.14 1219.61 226.59 1280.11 262.99 C 1281.54 263.50 1281.57 265.08 1281.95 266.32 C 1263.30 266.35 1244.63 266.53 1225.99 266.24 C 1211.38 257.93 1197.14 248.92 1182.67 240.35 C 1144.66 217.50 1106.69 194.58 1068.69 171.70 C 1017.88 202.22 967.12 232.84 916.37 263.46 C 914.03 264.72 911.85 266.81 909.00 266.40 C 891.09 266.32 873.18 266.46 855.27 266.32 C 855.40 264.64 856.26 263.30 857.81 262.61 C 953.31 205.21 1048.72 147.67 1144.17 90.19 Z" />
<path fill="#080909" d=" M 80.16 67.16 C 149.45 67.12 218.74 67.15 288.03 67.15 C 306.07 67.64 324.63 68.55 341.57 75.38 C 353.57 80.11 363.58 90.07 367.34 102.54 C 370.98 114.73 370.56 128.00 367.07 140.16 C 363.90 151.14 355.57 160.44 344.89 164.58 C 329.06 170.88 311.79 171.71 294.98 172.60 C 223.36 172.66 151.75 172.59 80.14 172.63 C 80.16 137.47 80.12 102.32 80.16 67.16 Z" />
<path fill="#3d8fff" d=" M 1354.00 112.37 C 1359.54 112.37 1365.08 112.37 1370.63 112.37 C 1370.63 117.91 1370.63 123.45 1370.63 129.00 C 1365.08 129.00 1359.54 129.00 1354.00 129.00 C 1353.99 123.45 1353.99 117.91 1354.00 112.37 Z" />
<path fill="#ffffff" d=" M 1448.17 142.23 C 1466.23 140.03 1485.26 145.85 1498.29 158.74 C 1512.13 171.34 1519.42 190.48 1517.61 209.09 C 1516.72 227.80 1505.85 245.12 1490.60 255.63 C 1476.45 265.78 1457.82 268.37 1441.03 264.65 C 1425.23 261.22 1411.56 250.61 1402.80 237.21 C 1391.33 219.40 1390.45 195.55 1399.57 176.57 C 1408.91 158.21 1427.40 144.21 1448.17 142.23 Z" />
<path fill="#ffffff" d=" M 1354.00 151.62 C 1359.53 151.62 1365.07 151.63 1370.62 151.61 C 1370.61 189.87 1370.61 228.13 1370.62 266.39 C 1365.07 266.37 1359.53 266.38 1354.00 266.38 C 1354.00 228.13 1354.00 189.87 1354.00 151.62 Z" />
<path fill="#080909" d=" M 1449.52 158.68 C 1465.68 156.32 1482.60 163.49 1492.25 176.65 C 1505.68 193.65 1504.13 220.41 1488.66 235.64 C 1477.81 247.54 1460.38 252.40 1444.84 248.58 C 1424.96 244.02 1409.24 224.66 1409.97 204.08 C 1409.16 181.82 1427.52 161.19 1449.52 158.68 Z" />
<path fill="#ffffff" d=" M 1314.85 249.85 C 1320.28 249.85 1325.71 249.85 1331.15 249.85 C 1331.14 255.36 1331.14 260.87 1331.15 266.38 C 1325.71 266.38 1320.28 266.38 1314.85 266.38 C 1314.85 260.87 1314.85 255.36 1314.85 249.85 Z" />
</svg>
